<svg xmlns="http://www.w3.org/2000/svg" viewBox="0 0 175.216 175.552">
  <defs>
    <linearGradient id="a" x1="85.915" x2="86.535" y1="32.567" y2="137.092" gradientUnits="userSpaceOnUse">
      <stop offset="0" stop-color="#57d163"/>
      <stop offset="1" stop-color="#23b33a"/>
    </linearGradient>
  </defs>
  <path fill="#fff" d="M87.184 0C39.2 0 .266 38.882.266 86.81c0 16.263 4.474 31.458 12.27 44.48L0 175.552l45.277-11.883a86.676 86.676 0 0 0 41.907 10.711c47.984 0 86.95-38.882 86.95-86.81S135.168 0 87.184 0z"/>
  <path fill="url(#a)" d="M87.184 14.737c-39.74 0-72.073 32.286-72.073 72.073 0 13.793 3.882 26.676 10.618 37.618L17.08 160.86l37.297-9.78a71.8 71.8 0 0 0 32.807 7.906c39.74 0 72.073-32.286 72.073-72.073s-32.333-72.176-72.073-72.176z"/>
  <path fill="#fff" fill-rule="evenodd" d="M63.52 51.078c-1.665-3.697-3.418-3.773-5.003-3.838-1.296-.055-2.78-.052-4.264-.052s-3.893.555-5.932 2.78c-2.038 2.226-7.783 7.604-7.783 18.536s7.97 21.502 9.078 22.992c1.11 1.49 15.376 24.608 37.928 33.487 18.74 7.377 22.556 5.904 26.63 5.535 4.075-.37 13.14-5.373 14.996-10.562 1.855-5.19 1.855-9.636 1.296-10.563-.555-.926-2.038-1.482-4.264-2.594-2.226-1.11-13.14-6.488-15.178-7.227-2.038-.74-3.52-1.11-5.003 1.11-1.482 2.226-5.746 7.23-7.042 8.715-1.296 1.49-2.594 1.674-4.82.555-2.226-1.11-9.4-3.465-17.905-11.047-6.617-5.898-11.085-13.186-12.381-15.412-1.296-2.226-.138-3.43 .975-4.538 1-1 2.226-2.594 3.336-3.893 1.11-1.296 1.482-2.226 2.226-3.712.74-1.49.37-2.78-.186-3.893-.555-1.11-4.913-12.072-6.93-16.467z" clip-rule="evenodd"/>
</svg>
